<svg width="50" height="50" viewBox="0 0 50 50" fill="none" xmlns="http://www.w3.org/2000/svg">
<ellipse cx="25.1473" cy="25.5" rx="24.1414" ry="24.5" fill="white"/>
<path d="M18.6235 0.877465C6.98381 4.38148 0 13.4919 0 25.0051C0 34.4159 4.8583 42.6253 12.8543 46.73C17.004 48.8324 17.6113 47.3307 13.7652 44.4273C11.0324 42.2248 10.5263 41.2237 10.5263 37.5194C10.5263 34.9164 9.91903 32.814 9.0081 32.0131C7.18623 30.5114 6.98381 26.6069 8.80567 25.2053C9.51417 24.6046 10.2227 22.6023 10.3239 20.8003C10.83 14.1927 18.0162 7.9856 25.2024 7.9856C32.3887 7.9856 39.5749 14.1927 40.081 20.8003C40.1822 22.6023 40.8907 24.6046 41.5992 25.2053C43.4211 26.6069 43.2186 30.5114 41.3968 32.0131C40.4858 32.814 39.8785 34.9164 39.8785 37.5194C39.8785 41.2237 39.3725 42.2248 36.6397 44.4273C32.3887 47.7311 33.6032 48.9325 38.3603 46.0292C45.0405 41.9245 50 33.0143 50 25.1052C50 9.28709 33.4008 -3.52758 18.6235 0.877465Z" fill="#D41443"/>
<path d="M19.9392 12.4908C18.1173 13.2917 16.5991 14.2928 16.5991 14.8935C16.5991 15.9948 22.0647 17.9971 25.2024 17.9971C28.34 17.9971 33.8056 15.9948 33.8056 14.8935C33.8056 13.6921 27.5303 10.989 24.9999 10.989C23.9878 11.0892 21.6599 11.6898 19.9392 12.4908Z" fill="#D41443"/>
<path d="M14.1698 18.6978C13.8661 19.0983 13.5625 20.3998 13.5625 21.7013C13.5625 24.0039 13.6637 24.0039 25.2022 24.0039C36.7406 24.0039 36.8419 24.0039 36.8419 21.7013C36.8419 18.2974 35.9309 17.8969 32.6921 19.4987C29.0483 21.4009 21.356 21.4009 17.7123 19.4987C16.0929 18.6978 14.5746 18.3975 14.1698 18.6978Z" fill="#D41443"/>
<path d="M11.2347 27.608C9.61526 29.31 12.3481 30.0108 20.2428 30.0108H28.7448V33.5148C28.7448 35.417 29.2509 37.0188 29.757 37.0188C30.3642 37.0188 30.7691 35.5171 30.7691 33.6149C30.7691 30.3111 30.9715 30.1109 34.8177 29.8105C37.0444 29.6103 38.8663 29.0096 38.8663 28.5091C38.8663 27.4078 12.3481 26.5068 11.2347 27.608Z" fill="#D41443"/>
<path d="M13.5625 36.4181C13.5625 41.9244 15.4856 43.0256 25.2022 43.0256C34.9188 43.0256 36.8419 41.9244 36.8419 36.4181C36.8419 34.0153 36.3358 33.0142 35.3236 33.0142C34.4127 33.0142 33.8054 33.9152 33.8054 35.4169C33.8054 41.0233 26.1131 41.5239 24.9997 36.0176C24.4937 33.1143 24.19 33.0142 19.0281 33.0142H13.5625V36.4181Z" fill="#D41443"/>
<path d="M19.8383 47.7312C20.4456 50.9349 30.7695 50.6345 30.7695 47.531C30.7695 46.4297 29.4537 46.0292 25.1015 46.0292C20.3444 46.0292 19.5347 46.3296 19.8383 47.7312Z" fill="#D41443"/>
</svg>
