<svg width="12" height="12" viewBox="0 0 12 12" fill="none" xmlns="http://www.w3.org/2000/svg">
<path d="M11.8497 5.85484C12.0672 5.60772 12.0462 5.22897 11.8028 5.00908L6.4398 0.161935C6.19638 -0.0579491 5.80611 -0.0533429 5.56781 0.172319L0.186634 5.26751C-0.0516656 5.49318 -0.0633615 5.87145 0.160739 6.11206L0.295652 6.25719C0.519479 6.49781 0.88127 6.52649 1.10322 6.32107L1.50538 5.94907V11.3953C1.50538 11.7295 1.7675 12 2.09076 12H4.18836C4.51162 12 4.77374 11.7295 4.77374 11.3953V7.58515H7.44925V11.3953C7.4446 11.7292 7.6759 11.9998 7.99916 11.9998H10.2221C10.5453 11.9998 10.8075 11.7292 10.8075 11.3951V6.02575C10.8075 6.02575 10.9186 6.12628 11.0556 6.25069C11.1924 6.37485 11.4797 6.2753 11.6972 6.02794L11.8497 5.85484Z" fill="#D31342"/>
</svg>
